<svg width="24" height="24" viewBox="0 0 24 24" fill="none" xmlns="http://www.w3.org/2000/svg">
<path d="M24 0L11.611 12.388C10.2663 11.9804 8.8448 11.8932 7.46037 12.1336C6.07593 12.374 4.76702 12.9352 3.63843 13.7723C2.50984 14.6094 1.59292 15.6991 0.961114 16.9542C0.329303 18.2093 0.000146246 19.5949 0 21C0 23.3869 0.948212 25.6761 2.63604 27.364C4.32387 29.0518 6.61305 30 9 30C10.4052 29.9997 11.7908 29.6705 13.0458 29.0385C14.3009 28.4066 15.3906 27.4896 16.2275 26.3609C17.0645 25.2322 17.6256 23.9232 17.8659 22.5387C18.1061 21.1542 18.0188 19.7327 17.611 18.388L20 16V14H22L30 6V0H24ZM28 5.171L21.172 12H18V15.171L16.197 16.973L15.349 17.821L15.697 18.968C15.898 19.63 16 20.313 16 21C16 24.86 12.859 28 9 28C5.141 28 2 24.86 2 21C2 17.14 5.141 14 9 14C9.686 14 10.37 14.102 11.031 14.302L12.177 14.65L13.025 13.802L24.828 2H28V5.171Z" fill="black"/>
<path d="M7 25C8.10457 25 9 24.1046 9 23C9 21.8954 8.10457 21 7 21C5.89543 21 5 21.8954 5 23C5 24.1046 5.89543 25 7 25Z" fill="black"/>
</svg>
